<svg width="681" height="1094" viewBox="0 0 681 1094" fill="none" xmlns="http://www.w3.org/2000/svg">
<g id="Group 36">
<g id="Group 36_2">
<circle id="Ellipse 37" cx="658.5" cy="1071.5" r="22" fill="#D9D9D9" stroke="#EBEBEB"/>
<circle id="Ellipse 38" cx="658.5" cy="922.5" r="22" fill="#D9D9D9" stroke="#EBEBEB"/>
<circle id="Ellipse 39" cx="658.5" cy="772.5" r="22" fill="#D9D9D9" stroke="#EBEBEB"/>
<circle id="Ellipse 40" cx="658.5" cy="622.5" r="22" fill="#D9D9D9" stroke="#EBEBEB"/>
<circle id="Ellipse 41" cx="658.5" cy="472.5" r="22" fill="#D9D9D9" stroke="#EBEBEB"/>
<circle id="Ellipse 42" cx="658.5" cy="322.5" r="22" fill="#D9D9D9" stroke="#EBEBEB"/>
<circle id="Ellipse 46" cx="470.5" cy="97.5" r="22" fill="#D9D9D9" stroke="#EBEBEB"/>
<circle id="Ellipse 47" cx="470.5" cy="397.5" r="22" fill="#D9D9D9" stroke="#EBEBEB"/>
<circle id="Ellipse 48" cx="470.5" cy="697.5" r="22" fill="#D9D9D9" stroke="#EBEBEB"/>
<circle id="Ellipse 50" cx="282.5" cy="847.5" r="22" fill="#D9D9D9" stroke="#EBEBEB"/>
<circle id="Ellipse 51" cx="282.5" cy="247.5" r="22" fill="#D9D9D9" stroke="#EBEBEB"/>
<circle id="Ellipse 52" cx="94.5" cy="547.5" r="22" fill="#D9D9D9" stroke="#EBEBEB"/>
<circle id="Ellipse 49" cx="470.5" cy="997.5" r="22" fill="#D9D9D9" stroke="#EBEBEB"/>
<circle id="Ellipse 43" cx="658.5" cy="172.5" r="22" fill="#D9D9D9" stroke="#EBEBEB"/>
<circle id="Ellipse 44" cx="658.5" cy="22.5" r="22" fill="#D9D9D9" stroke="#EBEBEB"/>
</g>
<g id="Group 37" opacity="0.08">
<path id="Vector 80" d="M94.5 548H10" stroke="black" stroke-width="20" stroke-linecap="round"/>
<path id="R4_bottom" d="M471 997.5C471 1017.26 478.849 1036.21 492.821 1050.18C506.792 1064.15 525.741 1072 545.5 1072L659 1072" stroke="black" stroke-width="19" stroke-linecap="round"/>
<path id="R4_top" d="M471 997.5C471 977.741 478.849 958.792 492.821 944.821C506.792 930.849 525.741 923 545.5 923L659 923" stroke="black" stroke-width="19" stroke-linecap="round"/>
<path id="R5_bottom" d="M471 697.5C471 717.259 478.849 736.208 492.821 750.179C506.792 764.151 525.741 772 545.5 772L659 772" stroke="black" stroke-width="19" stroke-linecap="round"/>
<path id="R5_top" d="M471 697.5C471 677.741 478.849 658.792 492.821 644.821C506.792 630.849 525.741 623 545.5 623L659 623" stroke="black" stroke-width="19" stroke-linecap="round"/>
<path id="R6_bottom" d="M471 397.5C471 417.259 478.849 436.208 492.821 450.179C506.792 464.151 525.741 472 545.5 472L659 472" stroke="black" stroke-width="19" stroke-linecap="round"/>
<path id="R6_top" d="M471 397.5C471 377.741 478.849 358.792 492.821 344.821C506.792 330.849 525.741 323 545.5 323L659 323" stroke="black" stroke-width="19" stroke-linecap="round"/>
<path id="R7_bottom" d="M471 97.5C471 117.259 478.849 136.208 492.821 150.179C506.792 164.151 525.741 172 545.5 172L659 172" stroke="black" stroke-width="19" stroke-linecap="round"/>
<path id="R7_top" d="M471 97.5C471 77.7414 478.849 58.792 492.821 44.8205C506.792 30.8491 525.741 23 545.5 23L659 23" stroke="black" stroke-width="19" stroke-linecap="round"/>
<path id="R2_bottom" d="M283 848L283 924C283 943.759 290.849 962.708 304.821 976.679C318.792 990.651 337.741 998.5 357.5 998.5L471 998.5" stroke="black" stroke-width="19" stroke-linecap="round"/>
<path id="R2_top" d="M283 848L283 772.499C283 752.741 290.849 733.792 304.821 719.82C318.792 705.849 337.741 698 357.5 698L471 698" stroke="black" stroke-width="19" stroke-linecap="round"/>
<path id="R3_bottom" d="M283 248L283 324C283 343.759 290.849 362.708 304.821 376.679C318.792 390.651 337.741 398.5 357.5 398.5L471 398.5" stroke="black" stroke-width="19" stroke-linecap="round"/>
<path id="R3_top" d="M283 248L283 172.499C283 152.741 290.849 133.792 304.821 119.82C318.792 105.849 337.741 97.9999 357.5 97.9999L471 97.9999" stroke="black" stroke-width="19" stroke-linecap="round"/>
<path id="R1_bottom" d="M95 549.007L95 774.321C95 794.079 102.849 813.029 116.821 827C130.792 840.972 149.741 848.821 169.5 848.821L283 848.821" stroke="black" stroke-width="19" stroke-linecap="round"/>
<path id="R1_top" d="M95 549.006L95 322.007C95 302.248 102.849 283.299 116.821 269.328C130.792 255.356 149.741 247.507 169.5 247.507L283 247.507" stroke="black" stroke-width="19" stroke-linecap="round"/>
</g>
<g id="Group 38">
<path id="Vector 80_2" d="M94.5 548H10" stroke="black" stroke-width="20" stroke-linecap="round"/>
<path id="R4_bottom_2" d="M471 997.5C471 1017.26 478.849 1036.21 492.821 1050.18C506.792 1064.15 525.741 1072 545.5 1072L659 1072" stroke="black" stroke-width="19" stroke-linecap="round"/>
<path id="R4_top_2" d="M471 997.5C471 977.741 478.849 958.792 492.821 944.821C506.792 930.849 525.741 923 545.5 923L659 923" stroke="black" stroke-width="19" stroke-linecap="round"/>
<path id="R5_bottom_2" d="M471 697.5C471 717.259 478.849 736.208 492.821 750.179C506.792 764.151 525.741 772 545.5 772L659 772" stroke="black" stroke-width="19" stroke-linecap="round"/>
<path id="R5_top_2" d="M471 697.5C471 677.741 478.849 658.792 492.821 644.821C506.792 630.849 525.741 623 545.5 623L659 623" stroke="black" stroke-width="19" stroke-linecap="round"/>
<path id="R6_bottom_2" d="M471 397.5C471 417.259 478.849 436.208 492.821 450.179C506.792 464.151 525.741 472 545.5 472L659 472" stroke="black" stroke-width="19" stroke-linecap="round"/>
<path id="R6_top_2" d="M471 397.5C471 377.741 478.849 358.792 492.821 344.821C506.792 330.849 525.741 323 545.5 323L659 323" stroke="black" stroke-width="19" stroke-linecap="round"/>
<path id="R7_bottom_2" d="M471 97.5C471 117.259 478.849 136.208 492.821 150.179C506.792 164.151 525.741 172 545.5 172L659 172" stroke="black" stroke-width="19" stroke-linecap="round"/>
<path id="R7_top_2" d="M471 97.5C471 77.7414 478.849 58.792 492.821 44.8205C506.792 30.8491 525.741 23 545.5 23L659 23" stroke="black" stroke-width="19" stroke-linecap="round"/>
<path id="R2_bottom_2" d="M283 848L283 924C283 943.759 290.849 962.708 304.821 976.679C318.792 990.651 337.741 998.5 357.5 998.5L471 998.5" stroke="black" stroke-width="19" stroke-linecap="round"/>
<path id="R2_top_2" d="M283 848L283 772.499C283 752.741 290.849 733.792 304.821 719.82C318.792 705.849 337.741 698 357.5 698L471 698" stroke="black" stroke-width="19" stroke-linecap="round"/>
<path id="R3_bottom_2" d="M283 248L283 324C283 343.759 290.849 362.708 304.821 376.679C318.792 390.651 337.741 398.5 357.5 398.5L471 398.5" stroke="black" stroke-width="19" stroke-linecap="round"/>
<path id="R3_top_2" d="M283 248L283 172.499C283 152.741 290.849 133.792 304.821 119.82C318.792 105.849 337.741 97.9999 357.5 97.9999L471 97.9999" stroke="black" stroke-width="19" stroke-linecap="round"/>
<path id="R1_bottom_2" d="M95 549.007L95 774.321C95 794.079 102.849 813.029 116.821 827C130.792 840.972 149.741 848.821 169.5 848.821L283 848.821" stroke="black" stroke-width="19" stroke-linecap="round"/>
<path id="R1_top_2" d="M95 549.006L95 322.007C95 302.248 102.849 283.299 116.821 269.328C130.792 255.356 149.741 247.507 169.5 247.507L283 247.507" stroke="black" stroke-width="19" stroke-linecap="round"/>
</g>
</g>
</svg>
