<svg width="681" height="1094" viewBox="0 0 681 1094" fill="none" xmlns="http://www.w3.org/2000/svg">
<g id="Group 36">
<g id="Group 36_2">
<circle id="Ellipse 37" cx="658.5" cy="1071.5" r="22" fill="#D9D9D9" stroke="#EBEBEB"/>
<circle id="Ellipse 38" cx="658.5" cy="922.5" r="22" fill="#D9D9D9" stroke="#EBEBEB"/>
<circle id="Ellipse 39" cx="658.5" cy="772.5" r="22" fill="#D9D9D9" stroke="#EBEBEB"/>
<circle id="Ellipse 40" cx="658.5" cy="622.5" r="22" fill="#D9D9D9" stroke="#EBEBEB"/>
<circle id="Ellipse 41" cx="658.5" cy="472.5" r="22" fill="#D9D9D9" stroke="#EBEBEB"/>
<circle id="Ellipse 42" cx="658.5" cy="322.5" r="22" fill="#D9D9D9" stroke="#EBEBEB"/>
<circle id="Ellipse 46" cx="470.5" cy="97.5" r="22" fill="#D9D9D9" stroke="#EBEBEB"/>
<circle id="Ellipse 47" cx="470.5" cy="397.5" r="22" fill="#D9D9D9" stroke="#EBEBEB"/>
<circle id="Ellipse 48" cx="470.5" cy="697.5" r="22" fill="#D9D9D9" stroke="#EBEBEB"/>
<circle id="Ellipse 50" cx="282.5" cy="847.5" r="22" fill="#D9D9D9" stroke="#EBEBEB"/>
<circle id="Ellipse 51" cx="282.5" cy="247.5" r="22" fill="#D9D9D9" stroke="#EBEBEB"/>
<circle id="Ellipse 52" cx="94.5" cy="547.5" r="22" fill="#D9D9D9" stroke="#EBEBEB"/>
<circle id="Ellipse 49" cx="470.5" cy="997.5" r="22" fill="#D9D9D9" stroke="#EBEBEB"/>
<circle id="Ellipse 43" cx="658.5" cy="172.5" r="22" fill="#D9D9D9" stroke="#EBEBEB"/>
<circle id="Ellipse 44" cx="658.5" cy="22.5" r="22" fill="#D9D9D9" stroke="#EBEBEB"/>
</g>
<g id="Group 37" opacity="0.08">
<path id="Vector 80" d="M94.5 548H10" stroke="black" stroke-width="20" stroke-linecap="round"/>
<path id="R4_bottom" d="M471 997.5C471 1017.26 478.849 1036.21 492.821 1050.18C506.792 1064.15 525.741 1072 545.5 1072L659 1072" stroke="black" stroke-width="19" stroke-linecap="round"/>
<path id="R4_top" d="M471 997.5C471 977.741 478.849 958.792 492.821 944.821C506.792 930.849 525.741 923 545.5 923L659 923" stroke="black" stroke-width="19" stroke-linecap="round"/>
<path id="R5_bottom" d="M471 697.5C471 717.259 478.849 736.208 492.821 750.179C506.792 764.151 525.741 772 545.5 772L659 772" stroke="black" stroke-width="19" stroke-linecap="round"/>
<path id="R5_top" d="M471 697.5C471 677.741 478.849 658.792 492.821 644.821C506.792 630.849 525.741 623 545.5 623L659 623" stroke="black" stroke-width="19" stroke-linecap="round"/>
<path id="R6_bottom" d="M471 397.5C471 417.259 478.849 436.208 492.821 450.179C506.792 464.151 525.741 472 545.5 472L659 472" stroke="black" stroke-width="19" stroke-linecap="round"/>
<path id="R6_top" d="M471 397.5C471 377.741 478.849 358.792 492.821 344.821C506.792 330.849 525.741 323 545.5 323L659 323" stroke="black" stroke-width="19" stroke-linecap="round"/>
<path id="R7_bottom" d="M471 97.5C471 117.259 478.849 136.208 492.821 150.179C506.792 164.151 525.741 172 545.5 172L659 172" stroke="black" stroke-width="19" stroke-linecap="round"/>
<path id="R7_top" d="M471 97.5C471 77.7414 478.849 58.792 492.821 44.8205C506.792 30.8491 525.741 23 545.5 23L659 23" stroke="black" stroke-width="19" stroke-linecap="round"/>
<path id="R2_bottom" d="M283 848L283 924C283 943.759 290.849 962.708 304.821 976.679C318.792 990.651 337.741 998.5 357.5 998.5L471 998.5" stroke="black" stroke-width="19" stroke-linecap="round"/>
<path id="R2_top" d="M283 848L283 772.499C283 752.741 290.849 733.792 304.821 719.82C318.792 705.849 337.741 698 357.5 698L471 698" stroke="black" stroke-width="19" stroke-linecap="round"/>
<path id="R3_bottom" d="M283 248L283 324C283 343.759 290.849 362.708 304.821 376.679C318.792 390.651 337.741 398.5 357.5 398.5L471 398.5" stroke="black" stroke-width="19" stroke-linecap="round"/>
<path id="R3_top" d="M283 248L283 172.499C283 152.741 290.849 133.792 304.821 119.82C318.792 105.849 337.741 97.9999 357.5 97.9999L471 97.9999" stroke="black" stroke-width="19" stroke-linecap="round"/>
<path id="R1_bottom" d="M95 549.007L95 774.321C95 794.079 102.849 813.029 116.821 827C130.792 840.972 149.741 848.821 169.5 848.821L283 848.821" stroke="black" stroke-width="19" stroke-linecap="round"/>
<path id="R1_top" d="M95 549.006L95 322.007C95 302.248 102.849 283.299 116.821 269.328C130.792 255.356 149.741 247.507 169.5 247.507L283 247.507" stroke="black" stroke-width="19" stroke-linecap="round"/>
</g>
<g id="Group 38">
<path id="Vector 80_2" d="M94.5 548H10" stroke="black" stroke-width="20" stroke-linecap="round"/>
<path id="R4_bottom_2" d="M471 997.5C471 1017.26 478.849 1036.21 492.821 1050.18C506.792 1064.15 525.741 1072 545.5 1072L659 1072" stroke="black" stroke-width="19" stroke-linecap="round"/>
<path id="R4_top_2" d="M471 997.5C471 977.741 478.849 958.792 492.821 944.821C506.792 930.849 525.741 923 545.5 923L659 923" stroke="black" stroke-width="19" stroke-linecap="round"/>
<path id="R5_bottom_2" d="M471 697.5C471 717.259 478.849 736.208 492.821 750.179C506.792 764.151 525.741 772 545.5 772L659 772" stroke="black" stroke-width="19" stroke-linecap="round"/>
<path id="R5_top_2" d="M471 697.5C471 677.741 478.849 658.792 492.821 644.821C506.792 630.849 525.741 623 545.5 623L659 623" stroke="black" stroke-width="19" stroke-linecap="round"/>
<path id="R6_bottom_2" d="M471 397.5C471 417.259 478.849 436.208 492.821 450.179C506.792 464.151 525.741 472 545.5 472L659 472" stroke="black" stroke-width="19" stroke-linecap="round"/>
<path id="R6_top_2" d="M471 397.5C471 377.741 478.849 358.792 492.821 344.821C506.792 330.849 525.741 323 545.5 323L659 323" stroke="black" stroke-width="19" stroke-linecap="round"/>
<path id="R7_bottom_2" d="M471 97.5C471 117.259 478.849 136.208 492.821 150.179C506.792 164.151 525.741 172 545.5 172L659 172" stroke="black" stroke-width="19" stroke-linecap="round"/>
<path id="R7_top_2" d="M471 97.5C471 77.7414 478.849 58.792 492.821 44.8205C506.792 30.8491 525.741 23 545.5 23L659 23" stroke="black" stroke-width="19" stroke-linecap="round"/>
<path id="R2_bottom_2" d="M283 848L283 924C283 943.759 290.849 962.708 304.821 976.679C318.792 990.651 337.741 998.5 357.5 998.5L471 998.5" stroke="black" stroke-width="19" stroke-linecap="round"/>
<path id="R2_top_2" d="M283 848L283 772.499C283 752.741 290.849 733.792 304.821 719.82C318.792 705.849 337.741 698 357.5 698L471 698" stroke="black" stroke-width="19" stroke-linecap="round"/>
<path id="R3_bottom_2" d="M283 248L283 324C283 343.759 290.849 362.708 304.821 376.679C318.792 390.651 337.741 398.5 357.5 398.5L471 398.5" stroke="black" stroke-width="19" stroke-linecap="round"/>
<path id="R3_top_2" d="M283 248L283 172.499C283 152.741 290.849 133.792 304.821 119.82C318.792 105.849 337.741 97.9999 357.5 97.9999L471 97.9999" stroke="black" stroke-width="19" stroke-linecap="round"/>
<path id="R1_bottom_2" d="M95 549.007L95 774.321C95 794.079 102.849 813.029 116.821 827C130.792 840.972 149.741 848.821 169.5 848.821L283 848.821" stroke="black" stroke-width="19" stroke-linecap="round"/>
<path id="R1_top_2" d="M95 549.006L95 322.007C95 302.248 102.849 283.299 116.821 269.328C130.792 255.356 149.741 247.507 169.5 247.507L283 247.507" stroke="black" stroke-width="19" stroke-linecap="round"/>
</g>
<g id="Group 92">
<g id="Rectangle 261" filter="url(#filter0_d_83_2)">
<rect x="59.7622" y="513.047" width="157.879" height="69.9048" rx="34.9524" fill="#F7F7F7"/>
<rect x="61.7622" y="515.047" width="153.879" height="65.9048" rx="32.9524" stroke="#DADADA" stroke-width="4"/>
</g>
<g id="Ellipse 53" filter="url(#filter1_d_83_2)">
<circle cx="94.5" cy="548" r="34.9525" fill="#F7F7F7"/>
<circle cx="94.5" cy="548" r="33.4525" stroke="#DADADA" stroke-width="3"/>
</g>
<path id="Vector 733" d="M95.6732 525.619C94.8922 524.837 93.6259 524.837 92.8448 525.619L80.1169 538.346C79.3358 539.127 79.3358 540.394 80.1169 541.175C80.8979 541.956 82.1643 541.956 82.9453 541.175L94.259 529.861L105.573 541.175C106.354 541.956 107.62 541.956 108.401 541.175C109.182 540.394 109.182 539.127 108.401 538.346L95.6732 525.619ZM92.8448 570.78C93.6259 571.561 94.8922 571.561 95.6732 570.78L108.401 558.053C109.182 557.271 109.182 556.005 108.401 555.224C107.62 554.443 106.354 554.443 105.573 555.224L94.259 566.538L82.9453 555.224C82.1643 554.443 80.8979 554.443 80.1169 555.224C79.3359 556.005 79.3359 557.271 80.1169 558.053L92.8448 570.78ZM92.259 527.033L92.259 569.366L96.259 569.366L96.259 527.033L92.259 527.033Z" fill="#DADADA"/>
<path id="R1" d="M146.506 533.562H156.564C158.726 533.562 160.568 533.888 162.092 534.539C163.615 535.19 164.78 536.154 165.588 537.43C166.408 538.693 166.818 540.255 166.818 542.117C166.818 543.536 166.558 544.786 166.037 545.867C165.516 546.948 164.78 547.859 163.83 548.602C162.879 549.331 161.747 549.897 160.431 550.301L158.947 551.023H149.904L149.865 547.137H156.642C157.814 547.137 158.791 546.928 159.572 546.512C160.353 546.095 160.939 545.529 161.33 544.812C161.734 544.083 161.935 543.263 161.935 542.352C161.935 541.362 161.74 540.503 161.349 539.773C160.972 539.031 160.386 538.465 159.592 538.074C158.797 537.671 157.788 537.469 156.564 537.469H151.408V562H146.506V533.562ZM162.736 562L156.056 549.227L161.193 549.207L167.97 561.746V562H162.736ZM183.81 533.465V562H179.103V539.051L172.131 541.414V537.527L183.244 533.465H183.81Z" fill="#55546A"/>
</g>
<g id="Group 93">
<g id="Rectangle 261_2" filter="url(#filter2_d_83_2)">
<rect x="249.195" y="813.868" width="157.879" height="69.9048" rx="34.9524" fill="#F7F7F7"/>
<rect x="251.195" y="815.868" width="153.879" height="65.9048" rx="32.9524" stroke="#DADADA" stroke-width="4"/>
</g>
<g id="Ellipse 53_2" filter="url(#filter3_d_83_2)">
<circle cx="283.932" cy="848.821" r="34.9525" fill="#F7F7F7"/>
<circle cx="283.932" cy="848.821" r="33.4525" stroke="#DADADA" stroke-width="3"/>
</g>
<path id="Vector 733_2" d="M285.106 826.439C284.325 825.658 283.058 825.658 282.277 826.439L269.549 839.167C268.768 839.948 268.768 841.215 269.549 841.996C270.33 842.777 271.597 842.777 272.378 841.996L283.691 830.682L295.005 841.996C295.786 842.777 297.053 842.777 297.834 841.996C298.615 841.215 298.615 839.948 297.834 839.167L285.106 826.439ZM282.277 871.601C283.058 872.382 284.325 872.382 285.106 871.601L297.834 858.873C298.615 858.092 298.615 856.826 297.834 856.045C297.053 855.264 295.786 855.264 295.005 856.045L283.691 867.359L272.378 856.045C271.597 855.264 270.33 855.264 269.549 856.045C268.768 856.826 268.768 858.092 269.549 858.873L282.277 871.601ZM281.691 827.854L281.691 870.187L285.691 870.187L285.691 827.854L281.691 827.854Z" fill="#DADADA"/>
<path id="R2" d="M335.938 834.383H345.997C348.158 834.383 350.001 834.709 351.524 835.36C353.047 836.011 354.213 836.974 355.02 838.25C355.84 839.514 356.251 841.076 356.251 842.938C356.251 844.357 355.99 845.607 355.469 846.688C354.948 847.769 354.213 848.68 353.262 849.422C352.312 850.152 351.179 850.718 349.864 851.122L348.379 851.844H339.337L339.297 847.958H346.075C347.247 847.958 348.223 847.749 349.004 847.333C349.786 846.916 350.372 846.349 350.762 845.633C351.166 844.904 351.368 844.084 351.368 843.172C351.368 842.183 351.172 841.323 350.782 840.594C350.404 839.852 349.818 839.286 349.024 838.895C348.23 838.491 347.221 838.29 345.997 838.29H340.84V862.821H335.938V834.383ZM352.169 862.821L345.489 850.047L350.626 850.028L357.403 862.567V862.821H352.169ZM379.454 859.071V862.821H360.391V859.598L369.649 849.5C370.665 848.355 371.465 847.365 372.051 846.532C372.637 845.698 373.047 844.95 373.282 844.286C373.529 843.609 373.653 842.951 373.653 842.313C373.653 841.415 373.484 840.627 373.145 839.95C372.82 839.26 372.338 838.719 371.7 838.329C371.062 837.925 370.287 837.723 369.376 837.723C368.321 837.723 367.435 837.951 366.719 838.407C366.003 838.862 365.463 839.494 365.098 840.301C364.734 841.096 364.551 842.007 364.551 843.036H359.844C359.844 841.382 360.222 839.872 360.977 838.504C361.732 837.124 362.826 836.03 364.258 835.223C365.691 834.403 367.416 833.993 369.434 833.993C371.335 833.993 372.95 834.312 374.278 834.95C375.606 835.588 376.615 836.493 377.305 837.665C378.008 838.836 378.36 840.223 378.36 841.825C378.36 842.71 378.217 843.589 377.93 844.461C377.644 845.334 377.234 846.206 376.7 847.079C376.179 847.938 375.56 848.804 374.844 849.676C374.128 850.536 373.34 851.408 372.481 852.293L366.329 859.071H379.454Z" fill="#55546A"/>
</g>
<g id="Group 94">
<g id="Rectangle 261_3" filter="url(#filter4_d_83_2)">
<rect x="249.195" y="213.047" width="157.879" height="69.9048" rx="34.9524" fill="#F7F7F7"/>
<rect x="251.195" y="215.047" width="153.879" height="65.9048" rx="32.9524" stroke="#DADADA" stroke-width="4"/>
</g>
<g id="Ellipse 53_3" filter="url(#filter5_d_83_2)">
<circle cx="283.932" cy="248" r="34.9525" fill="#F7F7F7"/>
<circle cx="283.932" cy="248" r="33.4525" stroke="#DADADA" stroke-width="3"/>
</g>
<path id="Vector 733_3" d="M285.106 225.619C284.325 224.837 283.058 224.837 282.277 225.619L269.549 238.346C268.768 239.127 268.768 240.394 269.549 241.175C270.33 241.956 271.597 241.956 272.378 241.175L283.691 229.861L295.005 241.175C295.786 241.956 297.053 241.956 297.834 241.175C298.615 240.394 298.615 239.127 297.834 238.346L285.106 225.619ZM282.277 270.78C283.058 271.561 284.325 271.561 285.106 270.78L297.834 258.053C298.615 257.271 298.615 256.005 297.834 255.224C297.053 254.443 295.786 254.443 295.005 255.224L283.691 266.538L272.378 255.224C271.597 254.443 270.33 254.443 269.549 255.224C268.768 256.005 268.768 257.271 269.549 258.053L282.277 270.78ZM281.691 227.033L281.691 269.366L285.691 269.366L285.691 227.033L281.691 227.033Z" fill="#DADADA"/>
<path id="R3" d="M335.938 233.562H345.997C348.158 233.562 350.001 233.888 351.524 234.539C353.047 235.19 354.213 236.154 355.02 237.43C355.84 238.693 356.251 240.255 356.251 242.117C356.251 243.536 355.99 244.786 355.469 245.867C354.948 246.948 354.213 247.859 353.262 248.602C352.312 249.331 351.179 249.897 349.864 250.301L348.379 251.023H339.337L339.297 247.137H346.075C347.247 247.137 348.223 246.928 349.004 246.512C349.786 246.095 350.372 245.529 350.762 244.812C351.166 244.083 351.368 243.263 351.368 242.352C351.368 241.362 351.172 240.503 350.782 239.773C350.404 239.031 349.818 238.465 349.024 238.074C348.23 237.671 347.221 237.469 345.997 237.469H340.84V262H335.938V233.562ZM352.169 262L345.489 249.227L350.626 249.207L357.403 261.746V262H352.169ZM365.919 245.652H368.731C369.825 245.652 370.73 245.464 371.446 245.086C372.175 244.708 372.715 244.188 373.067 243.523C373.419 242.859 373.594 242.098 373.594 241.238C373.594 240.34 373.432 239.572 373.106 238.934C372.794 238.283 372.312 237.781 371.661 237.43C371.023 237.078 370.209 236.902 369.219 236.902C368.386 236.902 367.631 237.072 366.954 237.41C366.29 237.736 365.762 238.204 365.372 238.816C364.981 239.415 364.786 240.132 364.786 240.965H360.059C360.059 239.454 360.456 238.113 361.251 236.941C362.045 235.77 363.126 234.852 364.493 234.188C365.873 233.51 367.422 233.172 369.141 233.172C370.977 233.172 372.579 233.478 373.946 234.09C375.326 234.689 376.4 235.587 377.169 236.785C377.937 237.983 378.321 239.467 378.321 241.238C378.321 242.046 378.132 242.866 377.754 243.699C377.377 244.533 376.817 245.294 376.075 245.984C375.333 246.661 374.408 247.215 373.301 247.645C372.195 248.061 370.912 248.27 369.454 248.27H365.919V245.652ZM365.919 249.324V246.746H369.454C371.12 246.746 372.54 246.941 373.712 247.332C374.896 247.723 375.86 248.263 376.602 248.953C377.344 249.63 377.885 250.405 378.223 251.277C378.575 252.15 378.751 253.074 378.751 254.051C378.751 255.379 378.51 256.564 378.028 257.605C377.559 258.634 376.889 259.507 376.016 260.223C375.144 260.939 374.122 261.479 372.95 261.844C371.791 262.208 370.528 262.391 369.161 262.391C367.937 262.391 366.765 262.221 365.645 261.883C364.525 261.544 363.523 261.043 362.637 260.379C361.752 259.702 361.049 258.862 360.528 257.859C360.02 256.844 359.766 255.672 359.766 254.344H364.473C364.473 255.19 364.669 255.939 365.059 256.59C365.463 257.228 366.023 257.729 366.739 258.094C367.468 258.458 368.301 258.641 369.239 258.641C370.228 258.641 371.081 258.465 371.797 258.113C372.514 257.762 373.06 257.241 373.438 256.551C373.829 255.861 374.024 255.027 374.024 254.051C374.024 252.944 373.809 252.046 373.379 251.355C372.95 250.665 372.338 250.158 371.544 249.832C370.749 249.493 369.812 249.324 368.731 249.324H365.919Z" fill="#55546A"/>
</g>
<g id="Group 95">
<g id="Rectangle 261_4" filter="url(#filter6_d_83_2)">
<rect x="442.769" y="63.0474" width="157.879" height="69.9048" rx="34.9524" fill="#F7F7F7"/>
<rect x="444.769" y="65.0474" width="153.879" height="65.9048" rx="32.9524" stroke="#DADADA" stroke-width="4"/>
</g>
<g id="Ellipse 53_4" filter="url(#filter7_d_83_2)">
<circle cx="477.506" cy="97.9999" r="34.9525" fill="#F7F7F7"/>
<circle cx="477.506" cy="97.9999" r="33.4525" stroke="#DADADA" stroke-width="3"/>
</g>
<path id="Vector 733_4" d="M478.68 75.6185C477.899 74.8375 476.632 74.8375 475.851 75.6185L463.123 88.3464C462.342 89.1275 462.342 90.3938 463.123 91.1749C463.904 91.9559 465.171 91.9559 465.952 91.1749L477.265 79.8611L488.579 91.1748C489.36 91.9559 490.626 91.9559 491.408 91.1748C492.189 90.3938 492.189 89.1275 491.408 88.3464L478.68 75.6185ZM475.851 120.78C476.632 121.561 477.899 121.561 478.68 120.78L491.408 108.053C492.189 107.271 492.189 106.005 491.408 105.224C490.626 104.443 489.36 104.443 488.579 105.224L477.265 116.538L465.952 105.224C465.171 104.443 463.904 104.443 463.123 105.224C462.342 106.005 462.342 107.271 463.123 108.053L475.851 120.78ZM475.265 77.0327L475.265 119.366L479.265 119.366L479.265 77.0327L475.265 77.0327Z" fill="#DADADA"/>
<path id="R7" d="M529.512 83.5625H539.571C541.732 83.5625 543.574 83.888 545.098 84.5391C546.621 85.1901 547.787 86.1536 548.594 87.4297C549.414 88.6927 549.824 90.2552 549.824 92.1172C549.824 93.5365 549.564 94.7865 549.043 95.8672C548.522 96.9479 547.787 97.8594 546.836 98.6016C545.886 99.3307 544.753 99.8971 543.438 100.301L541.953 101.023H532.91L532.871 97.1367H539.649C540.821 97.1367 541.797 96.9284 542.578 96.5117C543.36 96.0951 543.946 95.5286 544.336 94.8125C544.74 94.0833 544.942 93.263 544.942 92.3516C544.942 91.362 544.746 90.5026 544.356 89.7734C543.978 89.0312 543.392 88.4648 542.598 88.0742C541.804 87.6706 540.795 87.4688 539.571 87.4688H534.414V112H529.512V83.5625ZM545.742 112L539.063 99.2266L544.199 99.207L550.977 111.746V112H545.742ZM572.852 83.5625V86.1406L561.485 112H556.524L567.871 87.3125H553.145V83.5625H572.852Z" fill="#55546A"/>
</g>
<g id="Group 96">
<g id="Rectangle 261_5" filter="url(#filter8_d_83_2)">
<rect x="442.769" y="363.304" width="157.879" height="69.9048" rx="34.9524" fill="#F7F7F7"/>
<rect x="444.769" y="365.304" width="153.879" height="65.9048" rx="32.9524" stroke="#DADADA" stroke-width="4"/>
</g>
<g id="Ellipse 53_5" filter="url(#filter9_d_83_2)">
<circle cx="477.506" cy="398.257" r="34.9525" fill="#F7F7F7"/>
<circle cx="477.506" cy="398.257" r="33.4525" stroke="#DADADA" stroke-width="3"/>
</g>
<path id="Vector 733_5" d="M478.68 375.875C477.899 375.094 476.632 375.094 475.851 375.875L463.123 388.603C462.342 389.384 462.342 390.651 463.123 391.432C463.904 392.213 465.171 392.213 465.952 391.432L477.265 380.118L488.579 391.432C489.36 392.213 490.626 392.213 491.408 391.432C492.189 390.651 492.189 389.384 491.408 388.603L478.68 375.875ZM475.851 421.037C476.632 421.818 477.899 421.818 478.68 421.037L491.408 408.309C492.189 407.528 492.189 406.262 491.408 405.481C490.626 404.7 489.36 404.7 488.579 405.481L477.265 416.795L465.952 405.481C465.171 404.7 463.904 404.7 463.123 405.481C462.342 406.262 462.342 407.528 463.123 408.309L475.851 421.037ZM475.265 377.29L475.265 419.623L479.265 419.623L479.265 377.29L475.265 377.29Z" fill="#DADADA"/>
<path id="R6" d="M529.512 383.819H539.571C541.732 383.819 543.574 384.145 545.098 384.796C546.621 385.447 547.787 386.41 548.594 387.687C549.414 388.95 549.824 390.512 549.824 392.374C549.824 393.793 549.564 395.043 549.043 396.124C548.522 397.205 547.787 398.116 546.836 398.858C545.886 399.588 544.753 400.154 543.438 400.558L541.953 401.28H532.91L532.871 397.394H539.649C540.821 397.394 541.797 397.185 542.578 396.769C543.36 396.352 543.946 395.785 544.336 395.069C544.74 394.34 544.942 393.52 544.942 392.608C544.942 391.619 544.746 390.759 544.356 390.03C543.978 389.288 543.392 388.722 542.598 388.331C541.804 387.927 540.795 387.726 539.571 387.726H534.414V412.257H529.512V383.819ZM545.742 412.257L539.063 399.483L544.199 399.464L550.977 412.003V412.257H545.742ZM568.184 383.644H568.77V387.491H568.438C566.758 387.491 565.306 387.752 564.082 388.272C562.871 388.793 561.875 389.509 561.094 390.421C560.313 391.332 559.727 392.4 559.336 393.624C558.959 394.835 558.77 396.124 558.77 397.491V401.964C558.77 403.097 558.894 404.099 559.141 404.972C559.388 405.831 559.733 406.554 560.176 407.14C560.632 407.713 561.153 408.149 561.739 408.448C562.324 408.748 562.956 408.897 563.633 408.897C564.336 408.897 564.974 408.754 565.547 408.468C566.12 408.168 566.608 407.758 567.012 407.237C567.416 406.716 567.722 406.098 567.93 405.382C568.138 404.666 568.242 403.884 568.242 403.038C568.242 402.231 568.138 401.476 567.93 400.772C567.735 400.056 567.442 399.431 567.051 398.897C566.66 398.351 566.172 397.927 565.586 397.628C565.013 397.315 564.349 397.159 563.594 397.159C562.657 397.159 561.804 397.381 561.035 397.823C560.28 398.266 559.668 398.845 559.199 399.562C558.744 400.265 558.496 401.013 558.457 401.808L556.66 401.222C556.765 400.011 557.032 398.924 557.461 397.96C557.904 396.996 558.483 396.176 559.199 395.499C559.916 394.822 560.742 394.308 561.68 393.956C562.63 393.591 563.672 393.409 564.805 393.409C566.185 393.409 567.383 393.67 568.399 394.19C569.414 394.711 570.254 395.421 570.918 396.319C571.595 397.205 572.097 398.22 572.422 399.366C572.761 400.499 572.93 401.684 572.93 402.921C572.93 404.288 572.722 405.564 572.305 406.749C571.888 407.921 571.276 408.95 570.469 409.835C569.675 410.72 568.705 411.41 567.559 411.905C566.426 412.4 565.137 412.647 563.692 412.647C562.168 412.647 560.808 412.354 559.61 411.769C558.425 411.183 557.416 410.375 556.582 409.347C555.762 408.318 555.137 407.133 554.707 405.792C554.278 404.451 554.063 403.032 554.063 401.534V399.581C554.063 397.42 554.336 395.382 554.883 393.468C555.43 391.541 556.27 389.841 557.403 388.37C558.548 386.899 560.013 385.746 561.797 384.913C563.581 384.067 565.71 383.644 568.184 383.644Z" fill="#55546A"/>
</g>
<g id="Group 97">
<g id="Rectangle 261_6" filter="url(#filter10_d_83_2)">
<rect x="442.769" y="663.961" width="157.879" height="69.9048" rx="34.9524" fill="#F7F7F7"/>
<rect x="444.769" y="665.961" width="153.879" height="65.9048" rx="32.9524" stroke="#DADADA" stroke-width="4"/>
</g>
<g id="Ellipse 53_6" filter="url(#filter11_d_83_2)">
<circle cx="477.506" cy="698.913" r="34.9525" fill="#F7F7F7"/>
<circle cx="477.506" cy="698.913" r="33.4525" stroke="#DADADA" stroke-width="3"/>
</g>
<path id="Vector 733_6" d="M478.68 676.532C477.899 675.751 476.632 675.751 475.851 676.532L463.123 689.26C462.342 690.041 462.342 691.307 463.123 692.088C463.904 692.869 465.171 692.869 465.952 692.088L477.265 680.775L488.579 692.088C489.36 692.869 490.626 692.869 491.408 692.088C492.189 691.307 492.189 690.041 491.408 689.26L478.68 676.532ZM475.851 721.694C476.632 722.475 477.899 722.475 478.68 721.694L491.408 708.966C492.189 708.185 492.189 706.919 491.408 706.138C490.626 705.357 489.36 705.357 488.579 706.138L477.265 717.451L465.952 706.138C465.171 705.357 463.904 705.357 463.123 706.138C462.342 706.919 462.342 708.185 463.123 708.966L475.851 721.694ZM475.265 677.946L475.265 720.28L479.265 720.28L479.265 677.946L475.265 677.946Z" fill="#DADADA"/>
<path id="R5" d="M529.512 684.476H539.571C541.732 684.476 543.574 684.802 545.098 685.453C546.621 686.104 547.787 687.067 548.594 688.343C549.414 689.606 549.824 691.169 549.824 693.031C549.824 694.45 549.564 695.7 549.043 696.781C548.522 697.861 547.787 698.773 546.836 699.515C545.886 700.244 544.753 700.811 543.438 701.214L541.953 701.937H532.91L532.871 698.05H539.649C540.821 698.05 541.797 697.842 542.578 697.425C543.36 697.009 543.946 696.442 544.336 695.726C544.74 694.997 544.942 694.177 544.942 693.265C544.942 692.276 544.746 691.416 544.356 690.687C543.978 689.945 543.392 689.378 542.598 688.988C541.804 688.584 540.795 688.382 539.571 688.382H534.414V712.914H529.512V684.476ZM545.742 712.914L539.063 700.14L544.199 700.121L550.977 712.66V712.914H545.742ZM558.907 699.691L555.157 698.773L556.699 684.476H572.032V688.46H560.606L559.824 695.433C560.267 695.173 560.879 694.919 561.66 694.671C562.442 694.411 563.334 694.281 564.336 694.281C565.677 694.281 566.875 694.502 567.93 694.945C568.998 695.375 569.903 696.006 570.645 696.839C571.387 697.66 571.953 698.662 572.344 699.847C572.735 701.019 572.93 702.341 572.93 703.812C572.93 705.127 572.735 706.358 572.344 707.503C571.966 708.649 571.394 709.658 570.625 710.531C569.857 711.403 568.887 712.087 567.715 712.582C566.556 713.063 565.183 713.304 563.594 713.304C562.409 713.304 561.27 713.135 560.176 712.796C559.095 712.445 558.125 711.931 557.266 711.253C556.407 710.563 555.716 709.717 555.196 708.714C554.675 707.699 554.375 706.533 554.297 705.218H558.907C559.024 706.143 559.278 706.931 559.668 707.582C560.072 708.22 560.606 708.708 561.27 709.046C561.934 709.385 562.702 709.554 563.574 709.554C564.369 709.554 565.052 709.417 565.625 709.144C566.198 708.858 566.673 708.454 567.051 707.933C567.442 707.399 567.728 706.774 567.91 706.058C568.106 705.342 568.203 704.548 568.203 703.675C568.203 702.842 568.093 702.08 567.871 701.39C567.663 700.7 567.344 700.101 566.914 699.593C566.498 699.085 565.97 698.695 565.332 698.421C564.694 698.135 563.959 697.992 563.125 697.992C562.005 697.992 561.146 698.154 560.547 698.48C559.961 698.806 559.414 699.209 558.907 699.691Z" fill="#55546A"/>
</g>
<g id="Group 98">
<g id="Rectangle 261_7" filter="url(#filter12_d_83_2)">
<rect x="442.769" y="963.547" width="157.879" height="69.9048" rx="34.9524" fill="#F7F7F7"/>
<rect x="444.769" y="965.547" width="153.879" height="65.9048" rx="32.9524" stroke="#DADADA" stroke-width="4"/>
</g>
<g id="Ellipse 53_7" filter="url(#filter13_d_83_2)">
<circle cx="477.506" cy="998.5" r="34.9525" fill="#F7F7F7"/>
<circle cx="477.506" cy="998.5" r="33.4525" stroke="#DADADA" stroke-width="3"/>
</g>
<path id="Vector 733_7" d="M478.68 976.119C477.899 975.337 476.632 975.337 475.851 976.119L463.123 988.846C462.342 989.627 462.342 990.894 463.123 991.675C463.904 992.456 465.171 992.456 465.952 991.675L477.265 980.361L488.579 991.675C489.36 992.456 490.626 992.456 491.408 991.675C492.189 990.894 492.189 989.627 491.408 988.846L478.68 976.119ZM475.851 1021.28C476.632 1022.06 477.899 1022.06 478.68 1021.28L491.408 1008.55C492.189 1007.77 492.189 1006.51 491.408 1005.72C490.626 1004.94 489.36 1004.94 488.579 1005.72L477.265 1017.04L465.952 1005.72C465.171 1004.94 463.904 1004.94 463.123 1005.72C462.342 1006.51 462.342 1007.77 463.123 1008.55L475.851 1021.28ZM475.265 977.533L475.265 1019.87L479.265 1019.87L479.265 977.533L475.265 977.533Z" fill="#DADADA"/>
<path id="R4" d="M529.512 984.062H539.571C541.732 984.062 543.574 984.388 545.098 985.039C546.621 985.69 547.787 986.654 548.594 987.93C549.414 989.193 549.824 990.755 549.824 992.617C549.824 994.036 549.564 995.286 549.043 996.367C548.522 997.448 547.787 998.359 546.836 999.102C545.886 999.831 544.753 1000.4 543.438 1000.8L541.953 1001.52H532.91L532.871 997.637H539.649C540.821 997.637 541.797 997.428 542.578 997.012C543.36 996.595 543.946 996.029 544.336 995.312C544.74 994.583 544.942 993.763 544.942 992.852C544.942 991.862 544.746 991.003 544.356 990.273C543.978 989.531 543.392 988.965 542.598 988.574C541.804 988.171 540.795 987.969 539.571 987.969H534.414V1012.5H529.512V984.062ZM545.742 1012.5L539.063 999.727L544.199 999.707L550.977 1012.25V1012.5H545.742ZM573.555 1002.36V1006.11H553.047L552.891 1003.28L565.157 984.062H568.926L564.844 991.055L557.793 1002.36H573.555ZM570 984.062V1012.5H565.293V984.062H570Z" fill="#55546A"/>
</g>
</g>
<defs>
<filter id="filter0_d_83_2" x="56.7622" y="512.047" width="165.879" height="77.9048" filterUnits="userSpaceOnUse" color-interpolation-filters="sRGB">
<feFlood flood-opacity="0" result="BackgroundImageFix"/>
<feColorMatrix in="SourceAlpha" type="matrix" values="0 0 0 0 0 0 0 0 0 0 0 0 0 0 0 0 0 0 127 0" result="hardAlpha"/>
<feOffset dx="1" dy="3"/>
<feGaussianBlur stdDeviation="2"/>
<feComposite in2="hardAlpha" operator="out"/>
<feColorMatrix type="matrix" values="0 0 0 0 0 0 0 0 0 0 0 0 0 0 0 0 0 0 0.07 0"/>
<feBlend mode="normal" in2="BackgroundImageFix" result="effect1_dropShadow_83_2"/>
<feBlend mode="normal" in="SourceGraphic" in2="effect1_dropShadow_83_2" result="shape"/>
</filter>
<filter id="filter1_d_83_2" x="50.1475" y="503.647" width="88.705" height="88.7048" filterUnits="userSpaceOnUse" color-interpolation-filters="sRGB">
<feFlood flood-opacity="0" result="BackgroundImageFix"/>
<feColorMatrix in="SourceAlpha" type="matrix" values="0 0 0 0 0 0 0 0 0 0 0 0 0 0 0 0 0 0 127 0" result="hardAlpha"/>
<feOffset/>
<feGaussianBlur stdDeviation="4.7"/>
<feComposite in2="hardAlpha" operator="out"/>
<feColorMatrix type="matrix" values="0 0 0 0 0 0 0 0 0 0 0 0 0 0 0 0 0 0 0.08 0"/>
<feBlend mode="normal" in2="BackgroundImageFix" result="effect1_dropShadow_83_2"/>
<feBlend mode="normal" in="SourceGraphic" in2="effect1_dropShadow_83_2" result="shape"/>
</filter>
<filter id="filter2_d_83_2" x="246.195" y="812.868" width="165.879" height="77.9048" filterUnits="userSpaceOnUse" color-interpolation-filters="sRGB">
<feFlood flood-opacity="0" result="BackgroundImageFix"/>
<feColorMatrix in="SourceAlpha" type="matrix" values="0 0 0 0 0 0 0 0 0 0 0 0 0 0 0 0 0 0 127 0" result="hardAlpha"/>
<feOffset dx="1" dy="3"/>
<feGaussianBlur stdDeviation="2"/>
<feComposite in2="hardAlpha" operator="out"/>
<feColorMatrix type="matrix" values="0 0 0 0 0 0 0 0 0 0 0 0 0 0 0 0 0 0 0.07 0"/>
<feBlend mode="normal" in2="BackgroundImageFix" result="effect1_dropShadow_83_2"/>
<feBlend mode="normal" in="SourceGraphic" in2="effect1_dropShadow_83_2" result="shape"/>
</filter>
<filter id="filter3_d_83_2" x="239.58" y="804.468" width="88.705" height="88.7053" filterUnits="userSpaceOnUse" color-interpolation-filters="sRGB">
<feFlood flood-opacity="0" result="BackgroundImageFix"/>
<feColorMatrix in="SourceAlpha" type="matrix" values="0 0 0 0 0 0 0 0 0 0 0 0 0 0 0 0 0 0 127 0" result="hardAlpha"/>
<feOffset/>
<feGaussianBlur stdDeviation="4.7"/>
<feComposite in2="hardAlpha" operator="out"/>
<feColorMatrix type="matrix" values="0 0 0 0 0 0 0 0 0 0 0 0 0 0 0 0 0 0 0.08 0"/>
<feBlend mode="normal" in2="BackgroundImageFix" result="effect1_dropShadow_83_2"/>
<feBlend mode="normal" in="SourceGraphic" in2="effect1_dropShadow_83_2" result="shape"/>
</filter>
<filter id="filter4_d_83_2" x="246.195" y="212.047" width="165.879" height="77.9048" filterUnits="userSpaceOnUse" color-interpolation-filters="sRGB">
<feFlood flood-opacity="0" result="BackgroundImageFix"/>
<feColorMatrix in="SourceAlpha" type="matrix" values="0 0 0 0 0 0 0 0 0 0 0 0 0 0 0 0 0 0 127 0" result="hardAlpha"/>
<feOffset dx="1" dy="3"/>
<feGaussianBlur stdDeviation="2"/>
<feComposite in2="hardAlpha" operator="out"/>
<feColorMatrix type="matrix" values="0 0 0 0 0 0 0 0 0 0 0 0 0 0 0 0 0 0 0.07 0"/>
<feBlend mode="normal" in2="BackgroundImageFix" result="effect1_dropShadow_83_2"/>
<feBlend mode="normal" in="SourceGraphic" in2="effect1_dropShadow_83_2" result="shape"/>
</filter>
<filter id="filter5_d_83_2" x="239.58" y="203.647" width="88.705" height="88.7048" filterUnits="userSpaceOnUse" color-interpolation-filters="sRGB">
<feFlood flood-opacity="0" result="BackgroundImageFix"/>
<feColorMatrix in="SourceAlpha" type="matrix" values="0 0 0 0 0 0 0 0 0 0 0 0 0 0 0 0 0 0 127 0" result="hardAlpha"/>
<feOffset/>
<feGaussianBlur stdDeviation="4.7"/>
<feComposite in2="hardAlpha" operator="out"/>
<feColorMatrix type="matrix" values="0 0 0 0 0 0 0 0 0 0 0 0 0 0 0 0 0 0 0.08 0"/>
<feBlend mode="normal" in2="BackgroundImageFix" result="effect1_dropShadow_83_2"/>
<feBlend mode="normal" in="SourceGraphic" in2="effect1_dropShadow_83_2" result="shape"/>
</filter>
<filter id="filter6_d_83_2" x="439.769" y="62.0474" width="165.879" height="77.9048" filterUnits="userSpaceOnUse" color-interpolation-filters="sRGB">
<feFlood flood-opacity="0" result="BackgroundImageFix"/>
<feColorMatrix in="SourceAlpha" type="matrix" values="0 0 0 0 0 0 0 0 0 0 0 0 0 0 0 0 0 0 127 0" result="hardAlpha"/>
<feOffset dx="1" dy="3"/>
<feGaussianBlur stdDeviation="2"/>
<feComposite in2="hardAlpha" operator="out"/>
<feColorMatrix type="matrix" values="0 0 0 0 0 0 0 0 0 0 0 0 0 0 0 0 0 0 0.07 0"/>
<feBlend mode="normal" in2="BackgroundImageFix" result="effect1_dropShadow_83_2"/>
<feBlend mode="normal" in="SourceGraphic" in2="effect1_dropShadow_83_2" result="shape"/>
</filter>
<filter id="filter7_d_83_2" x="433.154" y="53.6474" width="88.705" height="88.7048" filterUnits="userSpaceOnUse" color-interpolation-filters="sRGB">
<feFlood flood-opacity="0" result="BackgroundImageFix"/>
<feColorMatrix in="SourceAlpha" type="matrix" values="0 0 0 0 0 0 0 0 0 0 0 0 0 0 0 0 0 0 127 0" result="hardAlpha"/>
<feOffset/>
<feGaussianBlur stdDeviation="4.7"/>
<feComposite in2="hardAlpha" operator="out"/>
<feColorMatrix type="matrix" values="0 0 0 0 0 0 0 0 0 0 0 0 0 0 0 0 0 0 0.08 0"/>
<feBlend mode="normal" in2="BackgroundImageFix" result="effect1_dropShadow_83_2"/>
<feBlend mode="normal" in="SourceGraphic" in2="effect1_dropShadow_83_2" result="shape"/>
</filter>
<filter id="filter8_d_83_2" x="439.769" y="362.304" width="165.879" height="77.9048" filterUnits="userSpaceOnUse" color-interpolation-filters="sRGB">
<feFlood flood-opacity="0" result="BackgroundImageFix"/>
<feColorMatrix in="SourceAlpha" type="matrix" values="0 0 0 0 0 0 0 0 0 0 0 0 0 0 0 0 0 0 127 0" result="hardAlpha"/>
<feOffset dx="1" dy="3"/>
<feGaussianBlur stdDeviation="2"/>
<feComposite in2="hardAlpha" operator="out"/>
<feColorMatrix type="matrix" values="0 0 0 0 0 0 0 0 0 0 0 0 0 0 0 0 0 0 0.07 0"/>
<feBlend mode="normal" in2="BackgroundImageFix" result="effect1_dropShadow_83_2"/>
<feBlend mode="normal" in="SourceGraphic" in2="effect1_dropShadow_83_2" result="shape"/>
</filter>
<filter id="filter9_d_83_2" x="433.154" y="353.904" width="88.705" height="88.7048" filterUnits="userSpaceOnUse" color-interpolation-filters="sRGB">
<feFlood flood-opacity="0" result="BackgroundImageFix"/>
<feColorMatrix in="SourceAlpha" type="matrix" values="0 0 0 0 0 0 0 0 0 0 0 0 0 0 0 0 0 0 127 0" result="hardAlpha"/>
<feOffset/>
<feGaussianBlur stdDeviation="4.7"/>
<feComposite in2="hardAlpha" operator="out"/>
<feColorMatrix type="matrix" values="0 0 0 0 0 0 0 0 0 0 0 0 0 0 0 0 0 0 0.08 0"/>
<feBlend mode="normal" in2="BackgroundImageFix" result="effect1_dropShadow_83_2"/>
<feBlend mode="normal" in="SourceGraphic" in2="effect1_dropShadow_83_2" result="shape"/>
</filter>
<filter id="filter10_d_83_2" x="439.769" y="662.961" width="165.879" height="77.9048" filterUnits="userSpaceOnUse" color-interpolation-filters="sRGB">
<feFlood flood-opacity="0" result="BackgroundImageFix"/>
<feColorMatrix in="SourceAlpha" type="matrix" values="0 0 0 0 0 0 0 0 0 0 0 0 0 0 0 0 0 0 127 0" result="hardAlpha"/>
<feOffset dx="1" dy="3"/>
<feGaussianBlur stdDeviation="2"/>
<feComposite in2="hardAlpha" operator="out"/>
<feColorMatrix type="matrix" values="0 0 0 0 0 0 0 0 0 0 0 0 0 0 0 0 0 0 0.07 0"/>
<feBlend mode="normal" in2="BackgroundImageFix" result="effect1_dropShadow_83_2"/>
<feBlend mode="normal" in="SourceGraphic" in2="effect1_dropShadow_83_2" result="shape"/>
</filter>
<filter id="filter11_d_83_2" x="433.154" y="654.561" width="88.705" height="88.7053" filterUnits="userSpaceOnUse" color-interpolation-filters="sRGB">
<feFlood flood-opacity="0" result="BackgroundImageFix"/>
<feColorMatrix in="SourceAlpha" type="matrix" values="0 0 0 0 0 0 0 0 0 0 0 0 0 0 0 0 0 0 127 0" result="hardAlpha"/>
<feOffset/>
<feGaussianBlur stdDeviation="4.7"/>
<feComposite in2="hardAlpha" operator="out"/>
<feColorMatrix type="matrix" values="0 0 0 0 0 0 0 0 0 0 0 0 0 0 0 0 0 0 0.08 0"/>
<feBlend mode="normal" in2="BackgroundImageFix" result="effect1_dropShadow_83_2"/>
<feBlend mode="normal" in="SourceGraphic" in2="effect1_dropShadow_83_2" result="shape"/>
</filter>
<filter id="filter12_d_83_2" x="439.769" y="962.547" width="165.879" height="77.9048" filterUnits="userSpaceOnUse" color-interpolation-filters="sRGB">
<feFlood flood-opacity="0" result="BackgroundImageFix"/>
<feColorMatrix in="SourceAlpha" type="matrix" values="0 0 0 0 0 0 0 0 0 0 0 0 0 0 0 0 0 0 127 0" result="hardAlpha"/>
<feOffset dx="1" dy="3"/>
<feGaussianBlur stdDeviation="2"/>
<feComposite in2="hardAlpha" operator="out"/>
<feColorMatrix type="matrix" values="0 0 0 0 0 0 0 0 0 0 0 0 0 0 0 0 0 0 0.07 0"/>
<feBlend mode="normal" in2="BackgroundImageFix" result="effect1_dropShadow_83_2"/>
<feBlend mode="normal" in="SourceGraphic" in2="effect1_dropShadow_83_2" result="shape"/>
</filter>
<filter id="filter13_d_83_2" x="433.154" y="954.147" width="88.705" height="88.7048" filterUnits="userSpaceOnUse" color-interpolation-filters="sRGB">
<feFlood flood-opacity="0" result="BackgroundImageFix"/>
<feColorMatrix in="SourceAlpha" type="matrix" values="0 0 0 0 0 0 0 0 0 0 0 0 0 0 0 0 0 0 127 0" result="hardAlpha"/>
<feOffset/>
<feGaussianBlur stdDeviation="4.7"/>
<feComposite in2="hardAlpha" operator="out"/>
<feColorMatrix type="matrix" values="0 0 0 0 0 0 0 0 0 0 0 0 0 0 0 0 0 0 0.08 0"/>
<feBlend mode="normal" in2="BackgroundImageFix" result="effect1_dropShadow_83_2"/>
<feBlend mode="normal" in="SourceGraphic" in2="effect1_dropShadow_83_2" result="shape"/>
</filter>
</defs>
</svg>
